<?xml version="1.0" standalone="no"?>
<!DOCTYPE svg PUBLIC "-//W3C//DTD SVG 20010904//EN"
 "http://www.w3.org/TR/2001/REC-SVG-20010904/DTD/svg10.dtd">
<svg version="1.0" xmlns="http://www.w3.org/2000/svg"
 width="1024.000000pt" height="1024.000000pt" viewBox="0 0 1024.000000 1024.000000"
 preserveAspectRatio="xMidYMid meet">

<g transform="translate(0.000000,1024.000000) scale(0.100000,-0.100000)"
fill="#000000" stroke="none">
<path d="M4015 7246 c-115 -29 -236 -105 -508 -319 -103 -82 -195 -149 -205
-149 -9 0 -64 5 -121 11 -63 7 -307 11 -633 11 l-529 0 -24 -25 c-33 -32 -33
-74 1 -106 l26 -24 380 3 380 4 -57 -69 c-31 -37 -63 -75 -69 -84 -11 -13 -54
-17 -286 -22 -150 -4 -328 -7 -396 -7 -117 0 -124 -1 -153 -26 -36 -30 -39
-61 -10 -98 l20 -26 310 0 c170 0 309 -2 309 -4 0 -2 -11 -34 -25 -70 -14 -37
-25 -75 -25 -86 0 -19 -8 -20 -268 -20 -268 0 -269 0 -290 -23 -28 -29 -28
-67 -1 -101 l22 -27 265 2 266 2 16 -49 c10 -27 27 -69 38 -93 12 -25 20 -46
18 -48 -2 -2 -112 -7 -246 -10 -240 -6 -242 -6 -257 -30 -24 -36 -19 -74 12
-101 28 -23 29 -23 264 -22 130 1 244 1 253 1 11 -1 29 -24 48 -61 16 -32 40
-65 52 -71 16 -8 59 -10 147 -6 68 4 126 9 128 11 3 2 -2 17 -11 33 -44 86
-45 274 -2 408 31 97 77 168 167 257 86 85 178 131 309 154 234 40 426 -21
583 -186 119 -125 170 -259 169 -445 0 -68 -6 -122 -20 -167 l-19 -68 1104 0
1104 0 -7 23 c-49 153 -54 250 -20 390 20 86 35 121 72 177 79 120 199 214
329 257 68 22 97 26 200 26 188 1 296 -38 432 -152 162 -136 241 -340 214
-551 -6 -51 -18 -110 -25 -132 l-14 -39 208 3 209 3 197 220 c109 121 230 255
271 298 40 43 73 83 73 88 0 11 -389 11 -525 0 l-100 -9 -105 104 -105 104
290 1 c160 1 303 4 320 8 29 6 28 7 -55 61 -292 191 -555 239 -1289 240 -236
0 -256 1 -275 19 -42 38 -743 486 -831 531 -181 92 -105 85 -925 87 -547 1
-737 -2 -775 -11z m671 -229 c2 -1 4 -90 5 -197 l2 -195 -566 0 c-509 0 -567
2 -567 16 0 8 30 40 68 70 37 29 111 91 165 135 53 45 130 104 170 130 l74 49
323 -3 c178 -2 325 -4 326 -5z m939 -62 c55 -32 159 -98 231 -145 71 -48 165
-106 207 -130 42 -24 77 -48 77 -52 0 -4 -269 -8 -597 -8 l-598 0 3 200 3 201
287 -3 287 -3 100 -60z"/>
<path d="M2672 7113 c-35 -3 -46 -10 -61 -34 -23 -38 -17 -62 22 -95 l30 -25
341 3 c203 2 348 7 358 13 9 6 33 33 54 60 21 28 45 54 53 59 13 8 12 11 -9
17 -26 7 -710 9 -788 2z"/>
<path d="M3325 6226 c-54 -17 -144 -64 -178 -92 -117 -98 -197 -262 -197 -404
0 -109 73 -274 156 -349 76 -69 126 -97 220 -122 132 -34 278 -11 408 65 46
27 64 48 140 166 42 66 76 181 76 261 0 224 -149 417 -366 473 -73 19 -203 20
-259 2z m240 -231 c149 -66 202 -222 130 -382 -29 -63 -63 -98 -130 -129 -138
-65 -320 9 -368 151 -19 55 -22 161 -6 218 21 76 111 147 213 167 53 10 99 3
161 -25z"/>
<path d="M3403 5855 c-43 -19 -73 -69 -73 -123 0 -37 6 -50 35 -79 33 -33 39
-35 84 -31 78 8 130 59 131 129 0 44 -30 86 -76 105 -41 17 -60 17 -101 -1z"/>
<path d="M6705 6225 c-90 -28 -162 -74 -224 -141 -118 -129 -157 -260 -127
-424 33 -179 125 -307 272 -377 67 -32 88 -37 173 -41 178 -8 289 33 387 144
161 181 196 393 98 588 -83 165 -257 267 -453 265 -47 -1 -104 -7 -126 -14z
m241 -221 c48 -20 121 -89 147 -139 32 -59 31 -183 -1 -245 -45 -86 -116 -140
-209 -160 -103 -22 -231 40 -286 139 -25 43 -31 69 -35 131 -6 96 8 140 61
197 87 94 211 124 323 77z"/>
<path d="M6783 5851 c-41 -26 -63 -69 -63 -125 0 -37 6 -50 32 -76 30 -30 35
-32 87 -28 47 4 59 10 87 41 42 45 50 78 33 124 -27 71 -114 103 -176 64z"/>
<path d="M2295 5348 c-52 -30 -58 -72 -15 -113 l29 -28 348 6 c202 3 358 9
373 15 14 6 20 11 13 11 -6 1 -28 28 -49 61 l-37 60 -321 0 c-223 -1 -327 -4
-341 -12z"/>
<path d="M3960 5350 c0 -5 -25 -34 -56 -64 -63 -61 -65 -53 22 -71 38 -8 2236
-7 2392 1 l134 7 -25 21 c-14 12 -37 42 -52 69 l-27 47 -1194 0 c-754 0 -1194
-4 -1194 -10z"/>
<path d="M7331 5324 c-13 -19 -38 -46 -54 -60 -16 -14 -27 -28 -23 -31 13 -14
125 -21 314 -22 192 -1 193 -1 217 24 29 28 32 70 9 103 -15 22 -19 22 -227
22 l-212 0 -24 -36z"/>
<path d="M2978 5081 c-152 -5 -169 -8 -188 -27 -31 -31 -37 -87 -11 -113 20
-20 26 -20 579 -20 307 0 564 4 572 9 9 5 11 24 8 64 -5 66 -20 81 -87 90 -51
7 -628 5 -873 -3z"/>
<path d="M6461 5078 c-302 -6 -431 -12 -449 -21 -41 -20 -52 -81 -23 -126 7
-11 129 -13 722 -12 789 2 742 -2 755 66 8 43 -8 71 -48 83 -49 15 -480 20
-957 10z"/>
<path d="M4125 5061 c-29 -6 -30 -8 -33 -74 l-3 -67 254 0 c233 0 255 2 270
18 29 31 31 74 7 105 l-21 27 -222 -1 c-122 -1 -235 -4 -252 -8z"/>
<path d="M4886 5049 c-56 -44 -16 -129 63 -129 32 0 44 6 65 31 33 39 33 64 0
94 -34 32 -91 33 -128 4z"/>
<path d="M5331 5060 c-51 -12 -73 -58 -49 -107 l13 -28 170 0 170 0 18 37 c16
34 17 39 3 66 -8 16 -23 32 -31 36 -23 9 -253 6 -294 -4z"/>
<path d="M8130 4569 c-38 -16 -78 -58 -91 -96 -16 -48 -4 -94 35 -139 33 -38
36 -39 97 -39 112 1 169 46 169 133 0 43 -29 93 -71 125 -31 23 -103 31 -139
16z m139 -64 c26 -29 31 -44 31 -84 0 -80 -51 -99 -63 -25 -5 28 -3 41 8 47
19 10 19 41 0 57 -24 20 -101 18 -122 -2 -10 -11 -12 -18 -6 -18 8 0 13 -24
15 -67 2 -42 8 -68 16 -71 8 -2 12 7 12 27 0 39 9 39 45 1 33 -34 31 -39 -19
-47 -29 -4 -42 0 -71 21 -31 24 -35 32 -35 72 0 49 20 97 47 113 10 6 39 11
64 11 41 0 51 -4 78 -35z m-59 -45 c0 -4 -11 -10 -25 -12 -26 -5 -37 16 -12
25 15 5 37 -2 37 -13z"/>
<path d="M6430 3946 l0 -526 109 0 108 0 7 92 c3 50 6 284 6 520 l0 428 -77 0
c-43 0 -95 3 -115 6 l-38 7 0 -527z"/>
<path d="M2336 4431 l-79 -6 -44 -105 c-25 -58 -53 -127 -63 -155 -9 -27 -49
-122 -88 -210 -38 -88 -89 -205 -112 -260 -23 -55 -58 -135 -76 -178 -19 -43
-34 -82 -34 -87 0 -6 52 -9 125 -7 115 2 125 4 131 22 4 11 19 54 36 95 l29
75 187 -3 c103 -1 192 -4 198 -6 6 -3 26 -45 45 -95 l33 -90 128 0 c80 0 128
4 128 11 0 5 -51 125 -114 266 -157 354 -206 467 -269 612 -32 74 -59 125 -68
126 -8 0 -50 -2 -93 -5z m69 -481 c31 -69 57 -129 58 -133 2 -8 -213 -10 -221
-2 -2 1 20 62 49 134 29 72 54 130 55 128 1 -1 28 -58 59 -127z"/>
<path d="M4740 4425 c0 -3 102 -243 143 -337 31 -70 67 -158 80 -195 14 -38
54 -135 90 -218 35 -82 73 -174 83 -202 l18 -53 103 3 c71 1 103 6 103 14 0
18 87 251 119 318 16 33 34 78 41 100 7 22 23 60 35 85 12 25 28 63 35 85 14
46 73 181 132 303 22 46 38 85 36 87 -1 2 -61 5 -132 6 l-128 3 -50 -129 c-27
-72 -69 -184 -93 -250 -58 -162 -99 -265 -106 -265 -3 0 -11 17 -17 38 -6 20
-60 164 -119 319 l-107 282 -133 3 c-73 2 -133 3 -133 3z"/>
<path d="M3710 4271 l0 -100 -52 -3 c-35 -2 -53 -7 -52 -15 1 -7 2 -51 3 -98
l1 -85 50 0 50 0 0 -162 c0 -90 5 -183 11 -208 14 -63 52 -116 106 -151 41
-25 56 -29 117 -29 39 0 88 3 109 6 l37 7 0 104 0 104 -37 -7 c-21 -3 -40 -6
-43 -6 -29 0 -42 5 -60 24 -19 20 -20 33 -18 176 l3 154 72 -4 c84 -4 83 -6
83 108 l0 71 -37 7 c-21 3 -57 6 -81 6 l-43 0 3 100 3 100 -112 0 -113 0 0
-99z"/>
<path d="M4365 4162 c-97 -34 -199 -123 -235 -206 -43 -96 -31 -241 27 -348
37 -68 121 -142 188 -167 65 -25 188 -28 248 -7 85 31 148 79 203 156 62 87
84 144 84 215 0 148 -86 273 -236 342 -77 35 -203 42 -279 15z m170 -196 c61
-19 92 -49 109 -106 42 -143 -72 -269 -203 -225 -78 26 -121 90 -121 180 0 90
55 146 161 164 3 1 27 -5 54 -13z"/>
<path d="M5883 4162 c-104 -37 -167 -95 -216 -200 -74 -159 -29 -355 107 -466
122 -100 324 -112 456 -26 46 31 115 90 108 94 -1 1 -33 25 -70 54 -59 46 -68
49 -80 35 -23 -28 -97 -55 -153 -55 -67 -1 -133 35 -164 88 l-21 35 261 -3
261 -3 -4 96 c-6 114 -31 177 -101 255 -65 71 -146 107 -252 111 -58 3 -94 -2
-132 -15z m202 -198 c22 -15 55 -61 55 -79 0 -3 -61 -5 -136 -5 l-135 0 7 23
c9 30 23 47 59 69 36 23 109 19 150 -8z"/>
<path d="M7017 4165 c-239 -66 -352 -323 -240 -547 70 -139 226 -219 388 -197
128 17 242 105 308 238 33 66 37 82 37 153 0 66 -5 89 -25 131 -38 75 -83 126
-148 168 -101 66 -211 84 -320 54z m191 -222 c94 -61 109 -194 30 -270 -58
-56 -121 -67 -186 -34 -47 24 -70 50 -88 98 -20 56 -17 113 7 153 36 59 71 78
144 79 39 1 61 -5 93 -26z"/>
<path d="M2873 3897 c6 -307 8 -315 79 -393 55 -60 106 -84 183 -84 66 0 121
21 171 63 18 15 35 27 38 27 3 0 6 -19 6 -43 l0 -43 103 2 c56 1 103 4 105 8
1 3 2 170 2 370 l0 363 -109 -1 -110 0 -3 -234 -3 -234 -37 -34 c-32 -28 -45
-34 -84 -34 -57 0 -79 12 -101 53 -15 28 -16 62 -14 260 l2 227 -117 0 -117 0
6 -273z"/>
<path d="M7548 4093 c-1 -40 -2 -85 -2 -100 l-1 -27 130 2 c72 2 139 6 150 9
14 4 9 -7 -21 -43 -52 -63 -177 -238 -232 -323 -39 -60 -48 -83 -67 -162 l-7
-26 349 1 348 1 3 106 3 106 -182 -5 c-104 -3 -180 -1 -178 4 21 45 139 223
218 329 100 133 131 179 131 194 0 11 -52 13 -320 10 l-320 -4 -2 -72z"/>
<path d="M4948 3060 l-237 -5 87 -139 c136 -217 246 -380 258 -383 11 -4 159
227 209 327 15 30 54 90 87 132 l59 78 -113 -2 c-62 -1 -220 -5 -350 -8z"/>
<path d="M4255 2951 c-32 -5 -42 -11 -50 -34 -15 -45 7 -54 162 -62 125 -7
137 -6 150 11 23 31 17 73 -13 84 -27 11 -183 11 -249 1z"/>
<path d="M5614 2935 c-3 -14 -3 -36 0 -50 6 -25 7 -25 114 -24 59 1 134 4 167
8 57 6 60 8 63 34 6 53 -5 57 -179 57 l-159 0 -6 -25z"/>
</g>
</svg>
